<svg width="14" height="24" viewBox="0 0 14 24" fill="none" xmlns="http://www.w3.org/2000/svg">
<path d="M10.1034 0C8.41159 0 6.78897 0.640807 5.59255 1.78143C4.39628 2.92207 3.72414 4.46909 3.72414 6.08219V9.46849H0.310345C0.138952 9.46849 0 9.60092 0 9.76438V14.2356C0 14.3991 0.138952 14.5315 0.310345 14.5315H3.72414V23.7041C3.72414 23.8676 3.86309 24 4.03448 24H8.72414C8.89559 24 9.03448 23.8676 9.03448 23.7041V14.5315H12.4785C12.621 14.5315 12.7451 14.4391 12.7796 14.3074L13.952 9.83619C14.001 9.64945 13.8528 9.46849 13.6509 9.46849H9.03448V6.08219C9.03448 5.81189 9.14717 5.55265 9.34759 5.36152C9.548 5.17039 9.82 5.06301 10.1034 5.06301H13.6897C13.8611 5.06301 14 4.93053 14 4.76712V0.29589C14 0.13248 13.8611 0 13.6897 0H10.1034Z" fill="#153416"/>
</svg>
