<svg width="24" height="24" viewBox="0 0 24 24" fill="none" xmlns="http://www.w3.org/2000/svg">
<path d="M2.72 0C1.21778 0 0 1.18615 0 2.64935C0 4.11254 1.21778 5.2987 2.72 5.2987C4.22221 5.2987 5.44 4.11254 5.44 2.64935C5.44 1.18615 4.22221 0 2.72 0Z" fill="#153416"/>
<path d="M0.16 7.48052C0.0716288 7.48052 0 7.55029 0 7.63636V23.8442C0 23.9302 0.0716288 24 0.16 24H5.28C5.36837 24 5.44 23.9302 5.44 23.8442V7.63636C5.44 7.55029 5.36837 7.48052 5.28 7.48052H0.16Z" fill="#153416"/>
<path d="M8.48 7.48052C8.39163 7.48052 8.32 7.55029 8.32 7.63636V23.8442C8.32 23.9302 8.39163 24 8.48 24H13.6C13.6883 24 13.76 23.9302 13.76 23.8442V15.1169C13.76 14.4969 14.0128 13.9023 14.463 13.4639C14.913 13.0255 15.5235 12.7792 16.16 12.7792C16.7965 12.7792 17.407 13.0255 17.857 13.4639C18.3072 13.9023 18.56 14.4969 18.56 15.1169V23.8442C18.56 23.9302 18.6317 24 18.72 24H23.84C23.9283 24 24 23.9302 24 23.8442V13.0974C24 10.0719 21.2984 7.70492 18.2077 7.9786C17.2547 8.06299 16.3123 8.29379 15.4323 8.66112L13.76 9.3592V7.63636C13.76 7.55029 13.6883 7.48052 13.6 7.48052H8.48Z" fill="#153416"/>
</svg>
